<?xml version="1.0"?>
<svg xmlns="http://www.w3.org/2000/svg" height="512px" viewBox="-6 0 406 406.74568" width="512px" class=""><g><path d="m111.902344 356.109375c1.046875-4.289063 5.378906-6.917969 9.671875-5.871094 4.289062 1.050781 6.917969 5.378907 5.871093 9.671875-2.449218 10.425782-8.199218 19.78125-16.386718 26.675782 3.082031 1.109374 6.300781 1.804687 9.566406 2.070312 8.25.640625 16.804688-1.703125 24.746094-6.789062 1.957031-1.253907 4.363281-1.59375 6.589844-.933594 2.230468.664062 4.058593 2.261718 5.015624 4.378906 5.667969 12.5625 13.160157 20.082031 21.074219 21.175781 13.34375 1.839844 24.613281-6.574219 29.613281-11.015625v-116.164062c0-.539063-.492187-1.113282-.636718-1.726563-2.78125-11.863281-17.890625-17.953125-19.605469-18.605469-4.128906-1.582031-6.191406-6.207031-4.613281-10.335937 1.582031-4.125 6.207031-6.1875 10.335937-4.609375 5.222657 1.992188 10.117188 4.753906 14.519531 8.199219v-239.890625c-10-9.695313-27.175781-14.390625-42.273437-11.492188-17.394531 3.339844-30.375 15.773438-33.75 31.417969.089844.007813.179687.015625.269531.027344 16.058594 1.933593 31.355469 9.558593 44.246094 22.054687 3.171875 3.074219 3.25 8.140625.175781 11.3125s-8.140625 3.25-11.3125.175782c-12.410156-12.027344-27.164062-18.164063-41.570312-18.054688-.253907.023438-.515625.035156-.777344.03125-.085937 0-.171875-.011719-.257813-.015625-9.222656.273437-18.183593 3.128906-25.863281 8.242187-15.214843 10.007813-18.878906 29.453126-14.628906 43.484376 1.457031 4.679687 3.789063 9.042968 6.867187 12.855468 1.757813 2.214844 2.210938 5.195313 1.203126 7.832032-1.011719 2.640624-3.339844 4.550781-6.128907 5.023437-.125.023437-15.925781 2.976563-23.667969 14.835937-3.378906 5.171876-4.792968 11.484376-4.253906 18.832032 13.074219-3.929688 26.902344-4.652344 40.316406-2.101563 20.089844 3.738281 37.246094 14.121094 48.300782 29.230469 2.605468 3.566406 1.832031 8.574219-1.734375 11.183594-3.566407 2.609375-8.574219 1.832031-11.183594-1.734375-17.898437-24.464844-56.417969-31.609375-84.113281-15.601563-14.050782 8.125-23.800782 20.964844-26.753906 35.234375-2.5625 11.847657.199218 24.222657 7.5625 33.851563 1.464843 1.972656 1.941406 4.507812 1.296874 6.878906-.648437 2.371094-2.347656 4.3125-4.613281 5.265625-2.96875 1.320313-20.125 11.722656-23.964843 25.710937-2.84375 10.351563 2.667968 25.332032 26.660156 36.324219 2.109375.964844 3.695312 2.796875 4.347656 5.023438.652344 2.226562.304688 4.625-.949219 6.574219-7.921875 11.84375-7.066406 27.492187 2.097657 38.402343 14.675781 17.121094 50.328124 15.398438 67.253906 1.574219 5.773437-4.761719 9.792968-11.308594 11.4375-18.609375zm65.730468-13.222656c-.339843 3.613281-1.585937 10.4375-6.089843 15.542969-2.925781 3.316406-7.980469 3.632812-11.292969.707031-3.316406-2.921875-3.632812-7.976563-.707031-11.289063 1.054687-1.199218 1.898437-3.734375 2.160156-6.46875.378906-3.980468-5.652344-8.613281-15.742187-12.089844-4.175782-1.4375-6.394532-5.992187-4.957032-10.167968 1.441406-4.175782 5.992188-6.398438 10.171875-4.957032 24.585938 8.46875 27.128907 21.632813 26.457031 28.722657zm-34.25-207.835938c-2.007812.691407-4.207031.5625-6.113281-.367187-1.910156-.929688-3.367187-2.578125-4.058593-4.585938-1.203126-3.355468-1.324219-7.003906-.347657-10.433594 1.28125-4.105468 3.9375-7.648437 7.519531-10.03125-4.753906-6.464843-7.855468-14-9.027343-21.9375-.679688-4.367187 2.3125-8.457031 6.679687-9.132812 4.363282-.679688 8.453125 2.3125 9.132813 6.679688 1.910156 12.328124 9.554687 21.75 19.019531 23.4375 3.222656.519531 6.519531.28125 9.632812-.6875 2.75-.816407 5.726563-.097657 7.800782 1.882812 2.070312 1.980469 2.925781 4.921875 2.238281 7.703125-.6875 2.785156-2.8125 4.988281-5.570313 5.777344-3.53125 1.046875-7.195312 1.589843-10.882812 1.605469-2.019531.003906-4.039062-.175782-6.03125-.527344-3.402344-.617188-6.691406-1.746094-9.75-3.355469-3.589844.835937-5.238281 2.507813-5.410156 3.097656-.019532.242188.019531.480469.117187.699219 1.441407 4.175781-.773437 8.734375-4.949219 10.175781zm-54.179687 171.546875c3.21875 2.953125 3.476563 7.9375.578125 11.203125-2.898438 3.269531-7.878906 3.605469-11.195312.765625-7.363282-6.535156-10.171876-15.894531-7.324219-24.421875 1.855469-5.328125 5.542969-9.824219 10.402343-12.691406-5.773437-6.503906-9.757812-14.394531-11.566406-22.898437-.90625-4.324219 1.863282-8.570313 6.1875-9.476563 4.328125-.910156 8.570313 1.859375 9.476563 6.1875 1.972656 9.308594 7.710937 17.386719 15.855469 22.308594.855468.292969 1.65625.726562 2.367187 1.289062 3.605469 1.78125 7.53125 2.824219 11.546875 3.0625 10.382812.578125 18.699219-4.800781 21.792969-7.140625 3.523437-2.664062 8.539062-1.972656 11.207031 1.550782 2.664062 3.523437 1.972656 8.542968-1.550781 11.207031-5.277344 3.992187-15.9375 10.425781-29.835938 10.425781-.824219 0-1.65625-.023438-2.5-.066406-6.191406-.367188-12.246093-1.988282-17.789062-4.769532-5.359375.265626-9.429688 3.121094-10.414063 6.070313-.789062 2.355469.273438 5.183594 2.761719 7.394531zm0 0" data-original="#000000" class="active-path" data-old_color="#D0E7F3" fill="#674867"/><path d="m341.695312 181.296875c-3.894531 3.890625-6.683593 8.746094-8.082031 14.066406h-118.949219v16h118.949219c3.628907 13.65625 15.980469 23.167969 30.109375 23.1875s26.507813-9.457031 30.175782-23.101562c3.667968-13.644531-2.292969-28.050781-14.527344-35.117188-12.234375-7.066406-27.6875-5.027343-37.675782 4.964844zm0 0" data-original="#000000" class="active-path" data-old_color="#D0E7F3" fill="#674867"/><path d="m336.480469 315.519531c-3.855469 3.832031-6.640625 8.605469-8.082031 13.84375h-41.734376v-38.828125c-.175781-4.527344-3.871093-8.121094-8.402343-8.171875h-63.597657v16h56v39.441407c-.074218 2.035156.703126 4.007812 2.148438 5.441406 1.441406 1.4375 3.417969 2.203125 5.449219 2.117187h50.140625c1.199218 5.46875 4.015625 10.445313 8.082031 14.289063 12.183594 12.15625 31.914063 12.144531 44.078125-.027344 12.167969-12.175781 12.167969-31.902344 0-44.078125-12.164062-12.171875-31.894531-12.1875-44.078125-.027344zm0 0" data-original="#000000" class="active-path" data-old_color="#D0E7F3" fill="#674867"/><path d="m286.664062 116.195312v-38.832031h41.734376c3.683593 13.695313 16.105468 23.207031 30.285156 23.191407 14.179687-.011719 26.582031-9.546876 30.238281-23.246094 3.65625-13.699219-2.34375-28.148438-14.628906-35.226563-12.285157-7.082031-27.792969-5.023437-37.8125 5.007813-4.066407 3.839844-6.882813 8.8125-8.082031 14.273437h-50.136719c-2.03125-.082031-4.007813.683594-5.449219 2.117188-1.445312 1.4375-2.222656 3.410156-2.148438 5.441406v39.441406h-56v16h63.597657c4.53125-.046875 8.226562-3.640625 8.402343-8.167969zm0 0" data-original="#000000" class="active-path" data-old_color="#D0E7F3" fill="#674867"/></g> </svg>
