<?xml version="1.0"?>
<svg xmlns="http://www.w3.org/2000/svg" height="512px" viewBox="-2 0 438 438.23" width="512px" class=""><g><path d="m233.066406 219.230469h32.300782c4.417968 0 7.699218 4.054687 7.699218 8.472656v31.417969l52.75-38.144532c1.394532-1.054687 3.078125-1.664062 4.824219-1.746093h103.425781v-146h-201zm135-109.699219c0-3.359375 4.042969-4.800781 8-4.800781 3.839844 0 8 1.441406 8 4.800781v78c0 3.238281-4.160156 4.917969-8 4.917969-3.957031 0-8-1.679688-8-4.917969zm-86.683594 75.234375 23.15625-75.476563c1.082032-3.601562 5.519532-5.28125 9.960938-5.28125 4.558594 0 9 1.679688 10.078125 5.277344l23.160156 75.472656c.125.386719.207031.785157.238281 1.191407 0 3.722656-5.636718 6.460937-9.835937 6.460937-2.640625 0-4.679687-.871094-5.28125-3.152344l-4.558594-16.027343h-27.480469l-4.558593 16.027343c-.601563 2.28125-2.640625 3.191407-5.28125 3.191407-4.199219 0-9.839844-2.640625-9.839844-6.480469.042969-.40625.125-.808594.242187-1.199219zm0 0" data-original="#000000" class="active-path" data-old_color="#000000" fill="#674867"/><path d="m269.996094 281c-1.355469 1.050781-3.003906 1.660156-4.71875 1.746094-1.289063 0-2.558594-.300782-3.707032-.878906-2.707031-1.351563-4.441406-4.09375-4.5-7.121094v-39.515625h-32.515624c-2.019532.085937-3.980469-.679688-5.40625-2.109375-1.421876-1.433594-2.179688-3.398438-2.082032-5.417969v-161.988281c0-4.421875 3.070313-8.484375 7.488282-8.484375h136.097656c-31.574219-35-81.285156-57.230469-131.023438-57.230469-42.050781 0-84.277344 16.398438-115.863281 44.558594-32.308594 28.800781-50.101563 66.347656-50.101563 105.671875.003907 1.527343-.425781 3.027343-1.234374 4.320312l-62.316407 98.679688h56.15625c4.367188-.042969 7.949219 3.457031 8 7.828125l.792969 79.382812c.082031 8.601563 3.625 16.804688 9.824219 22.761719 6.203125 5.957031 14.542969 9.164063 23.136719 8.902344l127.828124-3.933594c2.117188-.058594 4.167969.722656 5.703126 2.175781 1.535156 1.457032 2.429687 3.460938 2.484374 5.574219.09375 4.433594-3.410156 8.113281-7.84375 8.242187l-56.128906 1.722657v52.34375h208.824219l.804687-143.449219c0-.277344.019532-.617188.046876-.890625 1.324218-12 3.308593-25.9375 5.410156-40.570313.835937-5.832031 1.691406-11.089843 2.535156-18.089843h-54.464844zm0 0" data-original="#000000" class="active-path" data-old_color="#000000" fill="#674867"/><path d="m314.5 124.390625-10.441406 36.839844h20.878906zm0 0" data-original="#000000" class="active-path" data-old_color="#000000" fill="#674867"/></g> </svg>
