<?xml version="1.0"?>
<svg xmlns="http://www.w3.org/2000/svg" height="512px" viewBox="0 -86 436.362 436" width="512px"><g><path d="m63.179688 43.390625v20.914063l51.183593-10.457032zm0 0" data-original="#000000" class="active-path" data-old_color="#000000" fill="#D0E7F3"/><path d="m218.179688 186.6875c3.703124.035156 7.390624.472656 11 1.300781v-15.859375h-22v15.855469c3.609374-.828125 7.296874-1.261719 11-1.296875zm0 0" data-original="#000000" class="active-path" data-old_color="#000000" fill="#D0E7F3"/><path d="m51.179688 43.390625-51.179688 10.457031 51.179688 10.457032zm0 0" data-original="#000000" class="active-path" data-old_color="#000000" fill="#D0E7F3"/><path d="m247.179688 160.128906v-48h-58v48zm0 0" data-original="#000000" class="active-path" data-old_color="#000000" fill="#D0E7F3"/><path d="m385.179688 64.304688 51.183593-10.457032-51.183593-10.457031zm0 0" data-original="#000000" class="active-path" data-old_color="#000000" fill="#D0E7F3"/><path d="m248.121094 100.128906 18.011718-80.367187-8.976562-6.789063c-23.183594-17.054687-54.765625-17.054687-77.949219 0l-8.976562 6.789063 18.011719 80.367187zm0 0" data-original="#000000" class="active-path" data-old_color="#000000" fill="#D0E7F3"/><path d="m373.179688 43.390625-51.179688 10.457031 51.179688 10.457032zm0 0" data-original="#000000" class="active-path" data-old_color="#000000" fill="#D0E7F3"/><path d="m48.179688 111.128906h18v135h-18zm0 0" data-original="#000000" class="active-path" data-old_color="#000000" fill="#D0E7F3"/><path d="m259.179688 139.179688 99 62.925781v-14.128907l-99-76.195312zm0 0" data-original="#000000" class="active-path" data-old_color="#000000" fill="#D0E7F3"/><path d="m57.566406 77.652344c-.042968 0-.097656-.007813-.144531-.007813-.042969 0-.117187.007813-.160156.007813-.429688 0-.855469-.039063-1.277344-.121094l-18.804687-3.808594v25.40625h40v-25.40625l-18.535157 3.808594c-.351562.078125-.714843.121094-1.078125.121094zm0 0" data-original="#000000" class="active-path" data-old_color="#000000" fill="#D0E7F3"/><path d="m379.042969 77.652344c-.039063 0-.066407-.007813-.109375-.007813-.039063 0-.046875.007813-.089844.007813-.382812 0-.765625-.039063-1.136719-.121094l-18.527343-3.808594v25.40625h40v-25.40625l-18.796876 3.808594c-.441406.078125-.890624.121094-1.339843.121094zm0 0" data-original="#000000" class="active-path" data-old_color="#000000" fill="#D0E7F3"/><path d="m218.179688 198.6875c-18.039063 0-32.664063 14.625-32.664063 32.667969s14.625 32.667969 32.664063 32.667969c18.042968 0 32.667968-14.625 32.667968-32.667969-.019531-18.035157-14.632812-32.648438-32.667968-32.667969zm0 56.273438c-13.035157 0-23.605469-10.570313-23.605469-23.605469 0-13.039063 10.570312-23.605469 23.609375-23.605469 13.035156 0 23.605468 10.566406 23.601562 23.605469-.011718 13.03125-10.574218 23.589843-23.605468 23.605469zm0 0" data-original="#000000" class="active-path" data-old_color="#000000" fill="#D0E7F3"/><path d="m370.179688 111.128906h18v135h-18zm0 0" data-original="#000000" class="active-path" data-old_color="#000000" fill="#D0E7F3"/><path d="m78.179688 202.105469 99-62.925781v-26.511719l-99 75.328125zm0 0" data-original="#000000" class="active-path" data-old_color="#000000" fill="#D0E7F3"/><path d="m218.179688 219.75c-6.410157 0-11.605469 5.195312-11.605469 11.605469 0 6.410156 5.195312 11.605469 11.605469 11.605469 6.410156 0 11.605468-5.195313 11.605468-11.605469-.003906-6.40625-5.199218-11.597657-11.605468-11.605469zm0 0" data-original="#000000" class="active-path" data-old_color="#000000" fill="#D0E7F3"/></g> </svg>
