<?xml version="1.0"?>
<svg xmlns="http://www.w3.org/2000/svg" height="512px" viewBox="0 -62 470 470" width="512px"><g><path d="m279.34375 132.609375-44.667969-20.550781-44.664062 20.550781 44.664062 20.6875zm0 0" data-original="#000000" class="active-path" data-old_color="#000000" fill="#674867"/><path d="m228 165.484375-48-21.941406v57.835937l48 21.792969zm0 0" data-original="#000000" class="active-path" data-old_color="#000000" fill="#674867"/><path d="m242 223.171875 47-21.792969v-57.835937l-47 21.941406zm0 0" data-original="#000000" class="active-path" data-old_color="#000000" fill="#674867"/><path d="m234.839844 72.410156c3.21875 0 5.828125-2.613281 5.828125-5.832031s-2.609375-5.832031-5.828125-5.832031c-3.222656 0-5.832032 2.613281-5.832032 5.832031.003907 3.21875 2.613282 5.828125 5.832032 5.832031zm0 0" data-original="#000000" class="active-path" data-old_color="#000000" fill="#674867"/><path d="m142.03125 234.238281c2.746094.441407 5.421875-1.117187 6.390625-3.722656.96875-2.609375-.039063-5.535156-2.40625-6.996094-2.367187-1.457031-5.4375-1.042969-7.328125.996094-1.894531 2.039063-2.082031 5.128906-.453125 7.382813.902344 1.257812 2.269531 2.097656 3.796875 2.339843zm0 0" data-original="#000000" class="active-path" data-old_color="#000000" fill="#674867"/><path d="m323.625 233.207031c2.609375 1.886719 6.253906 1.300781 8.140625-1.308593 1.886719-2.609376 1.300781-6.253907-1.308594-8.140626-2.609375-1.886718-6.253906-1.300781-8.140625 1.308594-.914062 1.25-1.289062 2.8125-1.046875 4.34375.246094 1.53125 1.09375 2.898438 2.355469 3.796875zm0 0" data-original="#000000" class="active-path" data-old_color="#000000" fill="#674867"/><path d="m179.167969 292.410156 8.4375 9.3125c6.535156 7.128906 15.742187 11.214844 25.414062 11.277344h43.960938c9.675781-.078125 18.886719-4.179688 25.417969-11.320312l8.4375-9.335938c1.316406-1.460938 3.179687-2.308594 5.144531-2.34375h152.019531v-255.136719c0-19.0625-15.351562-34.863281-34.414062-34.863281h-357.171876c-19.0625 0-34.414062 15.800781-34.414062 34.863281v255.136719h152.019531c1.976563.058594 3.839844.933594 5.148438 2.410156zm-140.167969-23.410156v-242c0-3.867188 3.132812-7 7-7h378c3.867188 0 7 3.132812 7 7v242c0 3.867188-3.132812 7-7 7h-378c-3.867188 0-7-3.132812-7-7zm0 0" data-original="#000000" class="active-path" data-old_color="#000000" fill="#674867"/><path d="m292.691406 311.121094c-9.183594 10.027344-22.121094 15.777344-35.710937 15.878906h-43.960938c-13.589843-.101562-26.527343-5.851562-35.710937-15.878906l-6.355469-7.121094h-170.953125v7.136719c0 19.0625 15.390625 34.863281 34.453125 34.863281h401.097656c19.058594 0 34.449219-15.800781 34.449219-34.863281v-7.136719h-170.953125zm0 0" data-original="#000000" class="active-path" data-old_color="#000000" fill="#674867"/><path d="m53 262h364v-228h-364zm70.359375-36.664062c.824219-5.1875 3.675781-9.832032 7.929687-12.917969 4.25-3.082031 9.554688-4.347657 14.738282-3.519531 2.667968.433593 5.214844 1.417968 7.476562 2.890624l12.5-9.148437v-70.054687c.066406-2.757813 1.710938-5.230469 4.230469-6.359376l57.765625-26.507812v-14.550781c-8.988281-3.304688-14.332031-12.5625-12.691406-22 1.636718-9.4375 9.789062-16.351563 19.363281-16.433594 9.578125-.082031 17.847656 6.695313 19.644531 16.101563 1.800782 9.40625-3.382812 18.757812-12.316406 22.214843v14.964844l56.945312 26.210937c2.480469 1.144532 4.0625 3.628907 4.054688 6.359376v69.589843l13.320312 9.613281c6.785157-4.355468 15.539063-4.171874 22.132813.472657 6.597656 4.644531 9.722656 12.820312 7.910156 20.679687-1.816406 7.859375-8.210937 13.839844-16.175781 15.121094-1.054688.167969-2.121094.253906-3.1875.253906-4.160156 0-8.214844-1.316406-11.578125-3.761718-6.75-4.902344-9.714844-13.5-7.421875-21.519532l-12.648438-9.148437-57.75 26.570312c-1.859374.855469-3.996093.855469-5.855468 0l-57.347656-26.386719-12.398438 8.964844c2.292969 8.019532-.671875 16.617188-7.425781 21.519532-3.363281 2.445312-7.414063 3.761718-11.574219 3.761718-1.066406 0-2.132812-.085937-3.1875-.253906-10.820312-1.734375-18.183594-11.910156-16.453125-22.726562zm0 0" data-original="#000000" class="active-path" data-old_color="#000000" fill="#674867"/></g> </svg>
